<svg width="123" height="20" viewBox="0 0 123 20" fill="none" xmlns="http://www.w3.org/2000/svg">
<path d="M7.11872 17.4468H9.64472V2.51296H5.97054C2.27548 2.51296 0.33402 4.46834 0.33402 7.34768C0.33402 9.64686 1.39869 11.0006 3.29841 12.3973L0 17.4468H2.73476L6.40894 11.7956L5.1355 10.9146C3.59067 9.84024 2.83914 9.00223 2.83914 7.19727C2.83914 5.60719 3.9247 4.5328 5.99142 4.5328H7.11872V17.4468ZM40.2908 16.7162V14.6319C39.5183 15.1692 38.2241 15.6419 37.0132 15.6419C35.197 15.6419 34.508 14.7608 34.4037 12.9559H40.3951V11.6022C40.3951 7.8419 38.7877 6.42372 36.3034 6.42372C33.2764 6.42372 31.8359 8.80885 31.8359 12.075C31.8359 15.8353 33.6313 17.6617 36.8045 17.6617C38.3909 17.6617 39.56 17.2319 40.2908 16.7162ZM55.8225 17.6617C56.9706 17.6617 57.7849 17.4468 58.3902 16.9956V14.9113C57.7639 15.3625 57.0124 15.6419 55.9686 15.6419C54.1941 15.6419 53.4635 14.2237 53.4635 11.989C53.4635 9.64686 54.3611 8.44354 55.9895 8.44354C56.9498 8.44354 57.8892 8.78736 58.3902 9.10967V6.93942C57.8684 6.63859 56.9498 6.42372 55.7182 6.42372C52.5449 6.42372 50.8957 8.76587 50.8957 12.0535C50.8957 15.6634 52.5032 17.6617 55.8225 17.6617ZM17.5359 6.63859V10.9146H14.2166V6.63859H11.7323V17.4468H14.2166V12.9345H17.5359V17.4468H20.0201V6.63859H17.5359ZM31.2306 15.4271H30.124V6.63859H22.8802V7.56255C22.8802 10.2055 22.7132 13.6221 21.8364 15.4271H21.0638V19.9179H23.3603V17.4468H28.9341V19.9179H31.2306V15.4271ZM48.2237 17.4468H51.0419L47.0546 11.6237L50.5617 6.63859H48.0566L44.5495 11.6237V6.63859H42.0652V17.4468H44.5495V12.1394L48.2237 17.4468ZM36.2617 8.44354C37.4933 8.44354 37.8691 9.49644 37.8691 10.8502V11.065H34.4037C34.4663 9.34602 35.0718 8.44354 36.2617 8.44354ZM27.6398 15.4271H24.1326C24.8216 13.794 25.0095 10.8502 25.0095 8.98074V8.65843H27.6398V15.4271Z" fill="#1E1E1E"/>
<path d="M83.0082 2.51276V17.4466H91.2543V15.4268H85.5342V10.9574H90.2939V8.93756H85.5342V4.5326H91.1498V2.51276H83.0082ZM102.592 15.4268H101.486V6.63838H94.2415V7.56235C94.2415 10.2053 94.0745 13.6219 93.1977 15.4268H92.4253V19.9177H94.7216V17.4466H100.296V19.9177H102.592V15.4268ZM99.0013 15.4268H95.494C96.183 13.7938 96.3708 10.85 96.3708 8.98053V8.65822H99.0013V15.4268ZM111.693 10.0764C111.693 7.45492 110.399 6.46649 107.768 6.46649C106.119 6.46649 104.825 7.00368 104.073 7.45492V9.58219C104.741 9.06649 106.203 8.50781 107.476 8.50781C108.666 8.50781 109.209 8.93756 109.209 10.0979V10.6995H108.812C105.013 10.6995 103.322 11.9888 103.322 14.1805C103.322 16.3723 104.616 17.5971 106.536 17.5971C107.998 17.5971 108.624 17.1028 109.104 16.5872H109.209C109.229 16.8665 109.313 17.2317 109.396 17.4466H111.818C111.735 16.5657 111.693 15.6847 111.693 14.8036V10.0764ZM109.209 14.8682C108.895 15.3409 108.311 15.7277 107.434 15.7277C106.39 15.7277 105.869 15.083 105.869 14.1161C105.869 12.8483 106.724 12.3971 108.854 12.3971H109.209V14.8682Z" fill="#1E1E1E"/>
<path d="M78.1425 15.3892C76.5659 16.8219 74.5087 17.6861 72.2643 17.6861C67.556 17.6861 64.0279 13.9327 64.0279 9.64248C64.0279 5.60818 67.1532 2.31399 71.0279 2.31399C74.6847 2.31399 77.3231 5.23218 77.3231 8.39182C77.3231 11.3536 75.0531 13.7559 72.2643 13.7559C69.7126 13.7559 67.9115 11.7665 67.9115 9.64248C67.9115 7.73614 69.3442 6.24406 71.0291 6.24406C72.5204 6.24406 73.4407 7.3628 73.4407 8.39182C73.4407 9.28496 72.8301 9.82454 72.2643 9.82454C72.0641 9.82454 71.9876 9.781 71.9074 9.72955C72.0897 9.48813 72.1801 9.17414 72.1343 8.84696C72.0437 8.21503 71.4753 7.77837 70.8648 7.87203C70.341 7.9525 70.0082 8.31926 69.8439 8.59103C69.6577 8.89577 69.5583 9.26254 69.5583 9.64248C69.5583 11.1583 70.931 12.1385 72.2643 12.1385C74.2118 12.1398 75.6763 10.3892 75.6763 8.39182C75.6763 5.94723 73.6178 3.93008 71.0291 3.93008C68.0225 3.93008 65.676 6.55013 65.676 9.64248C65.676 13.1464 68.5782 16.0686 72.2656 16.0686C76.3417 16.0686 79.5599 12.5752 79.5599 8.3905C79.5599 3.89182 75.8599 0 71.0291 0C65.8901 0 61.7936 4.36148 61.7936 9.64248C61.7936 15.281 66.3923 20 72.2656 20C75.0747 20 77.6519 18.9143 79.6185 17.1279L78.1425 15.3892Z" fill="#1E1E1E"/>
</svg>
