<svg width="130" height="20" viewBox="0 0 130 20" fill="none" xmlns="http://www.w3.org/2000/svg">
<path d="M6.92376 16.7853H9.34376V2.88525H5.82376C2.28376 2.88525 0.42376 4.70525 0.42376 7.38525C0.42376 9.52526 1.44376 10.7853 3.26376 12.0853L0.10376 16.7853H2.72376L6.24376 11.5253L5.02376 10.7053C3.54376 9.70525 2.82376 8.92525 2.82376 7.24525C2.82376 5.76525 3.86376 4.76525 5.84376 4.76525H6.92376V16.7853ZM38.7038 16.1053V14.1653C37.9638 14.6653 36.7238 15.1053 35.5638 15.1053C33.8238 15.1053 33.1638 14.2853 33.0638 12.6053H38.8038V11.3453C38.8038 7.84525 37.2638 6.52525 34.8838 6.52525C31.9838 6.52525 30.6038 8.74525 30.6038 11.7853C30.6038 15.2853 32.3238 16.9853 35.3638 16.9853C36.8838 16.9853 38.0038 16.5853 38.7038 16.1053ZM53.5838 16.9853C54.6838 16.9853 55.4638 16.7853 56.0438 16.3653V14.4253C55.4438 14.8453 54.7238 15.1053 53.7238 15.1053C52.0238 15.1053 51.3238 13.7853 51.3238 11.7053C51.3238 9.52526 52.1838 8.40525 53.7438 8.40525C54.6638 8.40525 55.5638 8.72525 56.0438 9.02525V7.00525C55.5438 6.72525 54.6638 6.52525 53.4838 6.52525C50.4438 6.52525 48.8638 8.70526 48.8638 11.7653C48.8638 15.1253 50.4038 16.9853 53.5838 16.9853ZM16.9038 6.72525V10.7053H13.7238V6.72525H11.3438V16.7853H13.7238V12.5853H16.9038V16.7853H19.2838V6.72525H16.9038ZM30.0238 14.9053H28.9638V6.72525H22.0238V7.58526C22.0238 10.0453 21.8638 13.2253 21.0238 14.9053H20.2838V19.0853H22.4838V16.7853H27.8238V19.0853H30.0238V14.9053ZM46.3038 16.7853H49.0038L45.1838 11.3653L48.5438 6.72525H46.1438L42.7838 11.3653V6.72525H40.4038V16.7853H42.7838V11.8453L46.3038 16.7853ZM34.8438 8.40525C36.0238 8.40525 36.3838 9.38525 36.3838 10.6453V10.8453H33.0638C33.1238 9.24525 33.7038 8.40525 34.8438 8.40525ZM26.5838 14.9053H23.2238C23.8838 13.3853 24.0638 10.6453 24.0638 8.90525V8.60526H26.5838V14.9053Z" fill="#1E1E1E"/>
<path d="M81.033 14.5853V16.7853C81.033 16.7853 81.373 16.9853 82.033 16.9853C84.393 16.9853 85.053 15.0453 85.173 9.96526L85.313 4.76526H88.713V16.7853H91.133V2.88525H83.133L82.953 10.0053C82.873 13.3853 82.693 14.7653 81.713 14.7653C81.233 14.7653 81.033 14.5853 81.033 14.5853Z" fill="#1E1E1E"/>
<path d="M100.659 9.92526C100.659 7.48525 99.4192 6.56525 96.8992 6.56525C95.3192 6.56525 94.0792 7.06526 93.3592 7.48526V9.46525C93.9992 8.98525 95.3992 8.46526 96.6192 8.46526C97.7592 8.46526 98.2792 8.86525 98.2792 9.94526V10.5053H97.8992C94.2592 10.5053 92.6392 11.7053 92.6392 13.7453C92.6392 15.7853 93.8792 16.9253 95.7192 16.9253C97.1192 16.9253 97.7192 16.4653 98.1792 15.9853H98.2792C98.2992 16.2453 98.3792 16.5853 98.4592 16.7853H100.779C100.699 15.9653 100.659 15.1453 100.659 14.3253V9.92526ZM98.2792 14.3853C97.9792 14.8253 97.4192 15.1853 96.5792 15.1853C95.5792 15.1853 95.0792 14.5853 95.0792 13.6853C95.0792 12.5053 95.8992 12.0853 97.9392 12.0853H98.2792V14.3853Z" fill="#1E1E1E"/>
<path d="M106.533 16.7853C108.893 16.7853 110.293 15.7853 110.293 13.8653C110.293 12.5453 109.493 11.7853 108.153 11.5453C109.233 11.2453 109.913 10.4853 109.913 9.28526C109.913 7.56526 108.773 6.72526 106.573 6.72526H102.573V16.7853H106.533ZM106.233 8.52526C107.093 8.52526 107.573 8.88526 107.573 9.64526C107.573 10.3453 107.053 10.7653 106.153 10.7653H104.953V8.52526H106.233ZM106.273 12.5053C107.293 12.5053 107.833 12.8653 107.833 13.7053C107.833 14.6253 107.233 14.9853 106.273 14.9853H104.953V12.5053H106.273Z" fill="#1E1E1E"/>
<path d="M117.789 16.7853H120.489L116.669 11.3653L120.029 6.72526H117.629L114.269 11.3653V6.72526H111.889V16.7853H114.269V11.8453L117.789 16.7853Z" fill="#1E1E1E"/>
<path d="M128.589 9.92526C128.589 7.48525 127.349 6.56525 124.829 6.56525C123.249 6.56525 122.009 7.06526 121.289 7.48526V9.46525C121.929 8.98525 123.329 8.46526 124.549 8.46526C125.689 8.46526 126.209 8.86525 126.209 9.94526V10.5053H125.829C122.189 10.5053 120.569 11.7053 120.569 13.7453C120.569 15.7853 121.809 16.9253 123.649 16.9253C125.049 16.9253 125.649 16.4653 126.109 15.9853H126.209C126.229 16.2453 126.309 16.5853 126.389 16.7853H128.709C128.629 15.9653 128.589 15.1453 128.589 14.3253V9.92526ZM126.209 14.3853C125.909 14.8253 125.349 15.1853 124.509 15.1853C123.509 15.1853 123.009 14.5853 123.009 13.6853C123.009 12.5053 123.829 12.0853 125.869 12.0853H126.209V14.3853Z" fill="#1E1E1E"/>
<g clip-path="url(#clip0_18001_2270)">
<path d="M77.8324 9.94081C77.8324 4.81963 73.6809 0.668091 68.5597 0.668091C63.4385 0.668091 59.287 4.81963 59.287 9.94081C59.287 15.062 63.4385 19.2135 68.5597 19.2135C73.6809 19.2135 77.8324 15.062 77.8324 9.94081Z" fill="#1E1E1E"/>
<path d="M68.9313 10.0996C69.7144 5.97221 70.2719 5.25643 71.9815 5.389C73.691 5.52158 74.8723 7.42202 73.4695 11.5909C72.1181 15.6095 69.1363 16.3238 66.9697 15.0397C65.3987 14.1077 64.1601 12.0955 63.6912 10.9855C62.9531 9.24035 62.5653 7.33298 63.5368 6.29224C64.3322 5.43946 65.2464 5.02842 66.9697 6.98726C68.6931 8.94607 68.9313 10.0996 68.9313 10.0996Z" fill="#F0F0F0"/>
</g>
<defs>
<clipPath id="clip0_18001_2270">
<rect width="18.5454" height="18.5454" fill="white" transform="translate(59.2871 0.668091)"/>
</clipPath>
</defs>
</svg>
