<svg width="236" height="36" viewBox="0 0 236 36" fill="none" xmlns="http://www.w3.org/2000/svg">
<g clip-path="url(#clip0_18001_1685)">
<circle cx="16.4617" cy="17.2935" r="16.4617" fill="#FC3F1D"/>
<path d="M18.7816 27.1869H22.2208V7.43286H17.2184C12.1875 7.43286 9.54412 10.0194 9.54412 13.8281C9.54412 16.8693 10.9937 18.66 13.5802 20.5075L9.08936 27.1869H12.8128L17.8152 19.7116L16.0814 18.5463C13.9781 17.1251 12.9549 16.0166 12.9549 13.6291C12.9549 11.5258 14.4329 10.1046 17.2468 10.1046H18.7816V27.1869Z" fill="white"/>
</g>
<rect x="35.1183" y="0.831787" width="32.9234" height="32.9234" rx="12.3463" fill="white"/>
<path d="M52.1979 16.1072L61.3395 9.70679L62.0475 10.7175L52.8102 17.1843L63.0358 21.9529L62.5133 23.071L52.1979 18.2605V29.6394H50.9635V24.3464L50.0446 29.5593L48.8278 29.3455L50.1334 21.9373L46.9801 28.7009L45.8619 28.1785L49.9078 19.5017L42.5192 25.7029L41.7262 24.7566L49.6813 18.0789L39.3346 18.9841L39.2272 17.7546L50.0416 16.8074L41.7252 9.83081L42.5192 8.88452L50.9635 15.9695V4.86499H52.1979V16.1072Z" fill="#1E1E1E"/>
<path d="M52.1979 16.1072H52.0548V16.382L52.2799 16.2244L52.1979 16.1072ZM61.3395 9.70679L61.4567 9.6247L61.3746 9.50755L61.2574 9.58959L61.3395 9.70679ZM62.0475 10.7175L62.1295 10.8347L62.2468 10.7527L62.1647 10.6354L62.0475 10.7175ZM52.8102 17.1843L52.7281 17.0671L52.5251 17.2093L52.7497 17.314L52.8102 17.1843ZM63.0358 21.9529L63.1654 22.0134L63.226 21.8837L63.0962 21.8232L63.0358 21.9529ZM62.5133 23.071L62.4528 23.2007L62.5824 23.2611L62.6429 23.1316L62.5133 23.071ZM52.1979 18.2605L52.2583 18.1308L52.0548 18.0359V18.2605H52.1979ZM52.1979 29.6394V29.7825H52.3409V29.6394H52.1979ZM50.9635 29.6394H50.8204V29.7825H50.9635V29.6394ZM50.9635 24.3464H51.1066L50.8226 24.3216L50.9635 24.3464ZM50.0446 29.5593L50.0198 29.7002L50.1606 29.725L50.1855 29.5842L50.0446 29.5593ZM48.8278 29.3455L48.6869 29.3206L48.662 29.4616L48.803 29.4864L48.8278 29.3455ZM50.1334 21.9373L50.2743 21.9621L50.0038 21.8768L50.1334 21.9373ZM46.9801 28.7009L46.9195 28.8305L47.0493 28.8912L47.1098 28.7614L46.9801 28.7009ZM45.8619 28.1785L45.7323 28.118L45.6719 28.2476L45.8014 28.3081L45.8619 28.1785ZM49.9078 19.5017L50.0375 19.5622L49.8159 19.3921L49.9078 19.5017ZM42.5192 25.7029L42.4095 25.7948L42.5015 25.9045L42.6111 25.8125L42.5192 25.7029ZM41.7262 24.7566L41.6342 24.647L41.5247 24.7389L41.6165 24.8485L41.7262 24.7566ZM49.6813 18.0789L49.7733 18.1884L50.1207 17.8968L49.6688 17.9363L49.6813 18.0789ZM39.3346 18.9841L39.1921 18.9966L39.2045 19.1391L39.3471 19.1267L39.3346 18.9841ZM39.2272 17.7546L39.2147 17.6121L39.0722 17.6246L39.0846 17.7671L39.2272 17.7546ZM50.0416 16.8074L50.0541 16.9499L50.3982 16.9198L50.1336 16.6978L50.0416 16.8074ZM41.7252 9.83081L41.6156 9.73885L41.5237 9.84846L41.6333 9.94042L41.7252 9.83081ZM42.5192 8.88452L42.6111 8.77492L42.5015 8.68296L42.4096 8.79256L42.5192 8.88452ZM50.9635 15.9695L50.8715 16.0791L51.1066 16.2763V15.9695H50.9635ZM50.9635 4.86499V4.72192H50.8204V4.86499H50.9635ZM52.1979 4.86499H52.3409V4.72192H52.1979V4.86499ZM52.1979 16.1072L52.2799 16.2244L61.4215 9.82399L61.3395 9.70679L61.2574 9.58959L52.1158 15.99L52.1979 16.1072ZM61.3395 9.70679L61.2223 9.78887L61.9303 10.7996L62.0475 10.7175L62.1647 10.6354L61.4567 9.6247L61.3395 9.70679ZM62.0475 10.7175L61.9654 10.6003L52.7281 17.0671L52.8102 17.1843L52.8922 17.3015L62.1295 10.8347L62.0475 10.7175ZM52.8102 17.1843L52.7497 17.314L62.9753 22.0825L63.0358 21.9529L63.0962 21.8232L52.8706 17.0547L52.8102 17.1843ZM63.0358 21.9529L62.9061 21.8923L62.3837 23.0105L62.5133 23.071L62.6429 23.1316L63.1654 22.0134L63.0358 21.9529ZM62.5133 23.071L62.5738 22.9414L52.2583 18.1308L52.1979 18.2605L52.1374 18.3902L62.4528 23.2007L62.5133 23.071ZM52.1979 18.2605H52.0548V29.6394H52.1979H52.3409V18.2605H52.1979ZM52.1979 29.6394V29.4963H50.9635V29.6394V29.7825H52.1979V29.6394ZM50.9635 29.6394H51.1066V24.3464H50.9635H50.8204V29.6394H50.9635ZM50.9635 24.3464L50.8226 24.3216L49.9037 29.5345L50.0446 29.5593L50.1855 29.5842L51.1044 24.3713L50.9635 24.3464ZM50.0446 29.5593L50.0693 29.4184L48.8525 29.2046L48.8278 29.3455L48.803 29.4864L50.0198 29.7002L50.0446 29.5593ZM48.8278 29.3455L48.9687 29.3703L50.2743 21.9621L50.1334 21.9373L49.9925 21.9124L48.6869 29.3206L48.8278 29.3455ZM50.1334 21.9373L50.0038 21.8768L46.8504 28.6405L46.9801 28.7009L47.1098 28.7614L50.2631 21.9977L50.1334 21.9373ZM46.9801 28.7009L47.0407 28.5713L45.9225 28.0488L45.8619 28.1785L45.8014 28.3081L46.9195 28.8305L46.9801 28.7009ZM45.8619 28.1785L45.9916 28.2389L50.0375 19.5622L49.9078 19.5017L49.7782 19.4412L45.7323 28.118L45.8619 28.1785ZM49.9078 19.5017L49.8159 19.3921L42.4272 25.5933L42.5192 25.7029L42.6111 25.8125L49.9998 19.6113L49.9078 19.5017ZM42.5192 25.7029L42.6288 25.611L41.8359 24.6647L41.7262 24.7566L41.6165 24.8485L42.4095 25.7948L42.5192 25.7029ZM41.7262 24.7566L41.8182 24.8662L49.7733 18.1884L49.6813 18.0789L49.5893 17.9693L41.6342 24.647L41.7262 24.7566ZM49.6813 18.0789L49.6688 17.9363L39.3221 18.8416L39.3346 18.9841L39.3471 19.1267L49.6937 18.2214L49.6813 18.0789ZM39.3346 18.9841L39.4771 18.9717L39.3697 17.7422L39.2272 17.7546L39.0846 17.7671L39.1921 18.9966L39.3346 18.9841ZM39.2272 17.7546L39.2397 17.8972L50.0541 16.9499L50.0416 16.8074L50.0291 16.6649L39.2147 17.6121L39.2272 17.7546ZM50.0416 16.8074L50.1336 16.6978L41.8172 9.7212L41.7252 9.83081L41.6333 9.94042L49.9497 16.917L50.0416 16.8074ZM41.7252 9.83081L41.8348 9.92277L42.6288 8.97648L42.5192 8.88452L42.4096 8.79256L41.6156 9.73885L41.7252 9.83081ZM42.5192 8.88452L42.4272 8.99412L50.8715 16.0791L50.9635 15.9695L51.0555 15.8599L42.6111 8.77492L42.5192 8.88452ZM50.9635 15.9695H51.1066V4.86499H50.9635H50.8204V15.9695H50.9635ZM50.9635 4.86499V5.00806H52.1979V4.86499V4.72192H50.9635V4.86499ZM52.1979 4.86499H52.0548V16.1072H52.1979H52.3409V4.86499H52.1979Z" fill="black"/>
<path d="M236 29.64H231.863V16.2292L227.511 29.64H224.051L220.164 16.2648V29.64H216.561V11.6995H222.732L226.227 23.6479L230.115 11.6995H235.929L236 29.64Z" fill="white"/>
<path d="M202.718 35.1684C202.29 35.1684 201.933 35.1327 201.648 35.0614C201.362 35.0138 201.124 34.9544 200.934 34.883C200.72 34.7879 200.542 34.6809 200.399 34.562V31.1023C200.875 31.5779 201.517 31.8157 202.325 31.8157C202.92 31.8157 203.395 31.6849 203.752 31.4233C204.109 31.1855 204.406 30.8527 204.644 30.4246L198.473 11.6995H202.932L206.891 25.2173L210.85 11.6995H214.951L209.352 28.677C209.042 29.6043 208.71 30.4603 208.353 31.245C207.996 32.0297 207.568 32.7073 207.069 33.278C206.57 33.8725 205.963 34.3361 205.25 34.669C204.56 35.0019 203.716 35.1684 202.718 35.1684Z" fill="white"/>
<path d="M187.368 20.9729V29.64H183.124V11.6995H187.368V20.1169L193.36 11.6995H197.641L191.648 20.1169L198.461 29.64H193.646L187.368 20.9729Z" fill="white"/>
<path d="M169.287 11.6995V22.8276L175.778 11.6995H179.559V29.64H175.457V18.5475L168.966 29.64H165.185V11.6995H169.287Z" fill="white"/>
<path d="M157.679 15.0522V29.64H153.435V15.0522H148.441V11.6995H162.673V15.0522H157.679Z" fill="white"/>
<path d="M136.445 20.9729V29.64H132.2V11.6995H136.445V20.1169L142.437 11.6995H146.717L140.725 20.1169L147.537 29.64H142.722L136.445 20.9729Z" fill="white"/>
<path d="M124.543 21.4722H123.937C122.106 21.4722 120.798 21.6862 120.014 22.1142C119.229 22.5184 118.837 23.2317 118.837 24.2542C118.837 25.0151 119.051 25.6333 119.479 26.1089C119.93 26.5607 120.608 26.7865 121.512 26.7865C122.273 26.7865 122.903 26.6558 123.402 26.3942C123.901 26.1089 124.282 25.7641 124.543 25.3599V21.4722ZM128.788 25.2529C128.788 26.7271 128.859 28.1895 129.002 29.6399H124.864C124.793 29.4497 124.722 29.2238 124.65 28.9622C124.603 28.7007 124.567 28.451 124.543 28.2132H124.365C123.961 28.6412 123.438 29.0336 122.796 29.3902C122.154 29.7231 121.214 29.8896 119.978 29.8896C118.337 29.8896 117.006 29.4021 115.983 28.4272C114.985 27.4523 114.485 26.0494 114.485 24.2185C114.485 22.3876 115.234 20.9728 116.732 19.9741C118.23 18.9517 120.608 18.4405 123.866 18.4405H124.543V17.4418C124.543 16.4669 124.306 15.7892 123.83 15.4088C123.354 15.0045 122.605 14.8024 121.583 14.8024C121.036 14.8024 120.477 14.8619 119.907 14.9808C119.336 15.0759 118.789 15.2067 118.266 15.3731C117.767 15.5395 117.291 15.7298 116.839 15.9438C116.411 16.1578 116.055 16.3718 115.769 16.5858V13.0547C116.411 12.6743 117.267 12.3057 118.337 11.9491C119.407 11.5924 120.656 11.4141 122.082 11.4141C124.341 11.4141 126.018 11.8658 127.111 12.7694C128.229 13.673 128.788 15.2185 128.788 17.4061V25.2529Z" fill="white"/>
<path d="M100.984 14.0178C101.531 13.138 102.209 12.4722 103.017 12.0204C103.85 11.5687 104.765 11.3428 105.764 11.3428C106.762 11.3428 107.678 11.5449 108.51 11.9491C109.342 12.3533 110.056 12.9597 110.65 13.7681C111.245 14.5528 111.708 15.5277 112.041 16.6928C112.374 17.8342 112.54 19.1538 112.54 20.6519C112.54 22.1499 112.362 23.4814 112.005 24.6466C111.673 25.8117 111.197 26.7985 110.579 27.6069C109.984 28.3916 109.247 28.9861 108.367 29.3903C107.511 29.7945 106.572 29.9966 105.55 29.9966C103.671 29.9966 102.185 29.1763 101.091 27.5356V34.8117H96.8469V11.6994H100.77L100.984 14.0178ZM104.48 26.6439C105.716 26.6439 106.632 26.1684 107.226 25.2172C107.844 24.2661 108.153 22.7443 108.153 20.6519C108.153 18.5594 107.868 17.0495 107.297 16.1222C106.727 15.171 105.859 14.6955 104.694 14.6955C103.505 14.6955 102.613 15.1473 102.019 16.0508C101.424 16.9544 101.115 18.4048 101.091 20.4022V20.6875C101.091 22.78 101.365 24.3018 101.912 25.2529C102.482 26.1803 103.338 26.6439 104.48 26.6439Z" fill="white"/>
<path d="M93.2941 4.85132V29.6399H88.9784V8.20402H81.2743V29.6399H76.9586V4.85132H93.2941Z" fill="white"/>
<defs>
<clipPath id="clip0_18001_1685">
<rect width="32.9234" height="32.9234" fill="white" transform="translate(0 0.831787)"/>
</clipPath>
</defs>
</svg>
