<svg width="128" height="22" viewBox="0 0 128 22" fill="none" xmlns="http://www.w3.org/2000/svg">
<path d="M10.5479 0C16.3728 0.00026384 21.0947 4.72176 21.0947 10.5459C21.0947 16.37 16.3728 21.0915 10.5479 21.0918C4.72272 21.0918 3.35071e-05 16.3702 0 10.5459C0 4.72159 4.7227 0 10.5479 0ZM10.9199 4.48633C7.83615 4.4864 6.21004 6.07803 6.20996 8.41016C6.20996 10.2713 7.09574 11.3705 8.67676 12.5029L5.92969 16.5957H8.21777L11.2793 12.0205L10.2139 11.3037C8.92424 10.4291 8.29593 9.7447 8.2959 8.28711C8.2959 6.99763 9.20461 6.12305 10.9316 6.12305H11.873V16.585H13.9814V4.48633H10.9199Z" fill="white"/>
<path d="M26.8164 2.57825H37.2829V18.4585H34.5177V4.72608H29.5816V18.4585H26.8164V2.57825Z" fill="white"/>
<path d="M42.0732 6.96532L42.2103 8.45052C42.9416 7.3309 43.9928 6.73682 45.2726 6.73682C47.8321 6.73682 49.6146 8.86181 49.6146 12.7005C49.6146 16.562 47.7864 18.687 45.1355 18.687C43.97 18.687 42.9645 18.1386 42.2789 17.1104V21.7717H39.5594V6.96532H42.0732ZM44.4499 16.5392C46.0267 16.5392 46.8037 15.3739 46.8037 12.7005C46.8037 10.05 46.0724 8.88466 44.587 8.88466C43.0559 8.88466 42.2789 10.05 42.2789 12.7233C42.2789 15.3739 43.0102 16.5392 44.4499 16.5392Z" fill="white"/>
<path d="M59.9131 10.6212V15.6481C59.9131 16.5849 59.9588 17.5217 60.0502 18.4585H57.3993C57.3079 18.23 57.2165 17.8416 57.1936 17.5445H57.0793C56.5537 18.0929 55.8682 18.6185 54.2685 18.6185C52.166 18.6185 50.7492 17.3161 50.7492 14.9854C50.7492 12.6548 52.6002 11.2838 56.7594 11.2838H57.1936V10.6441C57.1936 9.41019 56.5994 8.95321 55.2968 8.95321C53.9028 8.95321 52.3031 9.54729 51.5719 10.0957V7.83359C52.3946 7.35375 53.8114 6.78252 55.6168 6.78252C58.4962 6.78252 59.9131 7.83359 59.9131 10.6212ZM57.1936 15.7166V13.0889H56.8051C54.4741 13.0889 53.5372 13.5688 53.5372 14.9169C53.5372 15.9451 54.1085 16.6306 55.2511 16.6306C56.2109 16.6306 56.8508 16.2193 57.1936 15.7166Z" fill="white"/>
<path d="M68.8411 18.4585L64.8191 12.8147V18.4585H62.0996V6.96532H64.8191V12.2664L68.6583 6.96532H71.4006L67.5614 12.2664L71.9262 18.4585H68.8411Z" fill="white"/>
<path d="M80.9319 9.11315H77.7326V18.4585H75.0131V9.11315H71.8137V6.96532H80.9319V9.11315Z" fill="white"/>
<path d="M82.542 6.96532H85.1929V14.0715L89.3978 6.96532H91.7516V18.4585H89.1007V11.3524L84.8958 18.4585H82.542V6.96532Z" fill="white"/>
<path d="M100.777 18.4585L96.7547 12.8147V18.4585H94.0352V6.96532H96.7547V12.2664L100.594 6.96532H103.336L99.497 12.2664L103.862 18.4585H100.777Z" fill="white"/>
<path d="M106.255 22.0002C105.181 22.0002 104.769 21.6117 104.769 21.6117V19.3953C105.066 19.6924 105.5 19.8523 106.003 19.8523C106.757 19.8523 107.192 19.5096 107.489 18.9612L103.535 6.96532H106.392L108.928 15.6024L111.465 6.96532H114.093L110.505 17.8416C109.728 20.1951 108.791 22.0002 106.255 22.0002Z" fill="white"/>
<path d="M124.929 18.4585V9.86718L122.141 18.4585H119.924L117.433 9.86718V18.4585H115.125V6.96532H119.078L121.318 14.6198L123.809 6.96532H127.534L127.579 18.4585H124.929Z" fill="white"/>
</svg>
